<svg width="678" height="188" viewBox="0 0 678 188" fill="none" xmlns="http://www.w3.org/2000/svg">
<path d="M4.4 7.28C4.4 5.76 4.96 4.52 6.08 3.56C7.2 2.51999 8.56 1.99999 10.16 1.99999H63.32C63.32 5.35999 62.64 7.84 61.28 9.44C59.92 11.04 57.8 11.84 54.92 11.84H15.68V38.72H49.28C49.28 42.08 48.6 44.56 47.24 46.16C45.88 47.76 43.8 48.56 41 48.56H15.68V76.16H57.44C60.24 76.16 62.32 76.96 63.68 78.56C65.04 80.16 65.72 82.64 65.72 86H10.16C8.56 86 7.2 85.52 6.08 84.56C4.96 83.52 4.4 82.24 4.4 80.72V7.28ZM76.5172 55.76C76.5172 52.8 77.2372 50.48 78.6772 48.8C80.1172 47.12 82.1572 46.28 84.7972 46.28H120.197C120.197 49.24 119.477 51.56 118.037 53.24C116.597 54.92 114.517 55.76 111.797 55.76H76.5172ZM167.489 87.08C160.769 87.08 154.769 85.84 149.489 83.36C144.209 80.8 140.089 77.28 137.129 72.8C134.249 68.24 132.809 63.08 132.809 57.32V30.44C132.809 24.68 134.249 19.56 137.129 15.08C140.089 10.6 144.169 7.12 149.369 4.64C154.569 2.15999 160.529 0.919994 167.249 0.919994C173.969 0.919994 179.929 1.99999 185.129 4.16C190.329 6.24 194.369 9.16 197.249 12.92C200.209 16.68 201.689 21 201.689 25.88C201.689 28.28 200.889 30.16 199.289 31.52C197.689 32.88 195.569 33.56 192.929 33.56C192.369 33.56 191.529 33.48 190.409 33.32C190.569 32.36 190.649 30.84 190.649 28.76C190.649 25.32 189.649 22.24 187.649 19.52C185.729 16.8 182.969 14.68 179.369 13.16C175.849 11.64 171.809 10.88 167.249 10.88C162.769 10.88 158.769 11.72 155.249 13.4C151.729 15 148.969 17.32 146.969 20.36C145.049 23.32 144.089 26.68 144.089 30.44V57.32C144.089 61.16 145.049 64.6 146.969 67.64C148.969 70.6 151.729 72.92 155.249 74.6C158.849 76.28 162.929 77.12 167.489 77.12C172.129 77.12 176.249 76.36 179.849 74.84C183.449 73.32 186.249 71.24 188.249 68.6C190.249 65.88 191.249 62.76 191.249 59.24C191.249 57.96 191.169 56.44 191.009 54.68C192.129 54.52 192.929 54.44 193.409 54.44C196.049 54.44 198.169 55.2 199.769 56.72C201.449 58.24 202.289 60.28 202.289 62.84C202.289 67.56 200.809 71.76 197.849 75.44C194.889 79.12 190.769 82 185.489 84.08C180.289 86.08 174.289 87.08 167.489 87.08ZM235.794 87.08C230.914 87.08 226.474 86.16 222.474 84.32C218.554 82.48 215.474 80 213.234 76.88C211.074 73.68 209.994 70.12 209.994 66.2V46.52C209.994 42.52 211.074 38.88 213.234 35.6C215.474 32.32 218.554 29.72 222.474 27.8C226.394 25.88 230.834 24.92 235.794 24.92C240.754 24.92 245.194 25.88 249.114 27.8C253.114 29.72 256.194 32.32 258.354 35.6C260.594 38.88 261.714 42.52 261.714 46.52V66.2C261.714 70.12 260.594 73.68 258.354 76.88C256.114 80 253.034 82.48 249.114 84.32C245.194 86.16 240.754 87.08 235.794 87.08ZM235.794 78.08C240.594 78.08 244.394 76.96 247.194 74.72C250.074 72.4 251.514 69.4 251.514 65.72V46.88C251.514 43.04 250.074 39.92 247.194 37.52C244.394 35.12 240.594 33.92 235.794 33.92C231.074 33.92 227.274 35.12 224.394 37.52C221.514 39.92 220.074 43.04 220.074 46.88V65.72C220.074 69.4 221.474 72.4 224.274 74.72C227.154 76.96 230.994 78.08 235.794 78.08ZM275.572 33.8C275.572 27.88 278.892 24.92 285.532 24.92V32.6C284.492 33.72 283.652 34.8 283.012 35.84L283.492 36.32C286.052 32.72 288.772 29.92 291.652 27.92C294.532 25.92 297.852 24.92 301.612 24.92C308.892 24.92 313.892 28.4 316.612 35.36C321.172 28.4 327.252 24.92 334.852 24.92C340.532 24.92 344.892 26.84 347.932 30.68C351.052 34.44 352.612 39.4 352.612 45.56V79.4C352.612 82.04 351.732 84 349.972 85.28C348.292 86.48 345.732 87.08 342.292 87.08V46.16C342.292 42.32 341.492 39.32 339.892 37.16C338.292 35 335.772 33.92 332.332 33.92C328.732 33.92 325.652 35.16 323.092 37.64C320.532 40.04 319.252 43.28 319.252 47.36V79.4C319.252 82.04 318.412 84 316.732 85.28C315.052 86.48 312.492 87.08 309.052 87.08V46.16C309.052 42.32 308.252 39.32 306.652 37.16C305.052 35 302.532 33.92 299.092 33.92C295.412 33.92 292.292 35.24 289.732 37.88C287.172 40.52 285.892 43.76 285.892 47.6V79.4C285.892 82.04 285.012 84 283.252 85.28C281.572 86.48 279.012 87.08 275.572 87.08V33.8ZM368.267 33.8C368.267 27.88 371.587 24.92 378.227 24.92V32.6C377.187 33.72 376.347 34.8 375.707 35.84L376.187 36.32C378.747 32.72 381.467 29.92 384.347 27.92C387.227 25.92 390.547 24.92 394.307 24.92C401.587 24.92 406.587 28.4 409.307 35.36C413.867 28.4 419.947 24.92 427.547 24.92C433.227 24.92 437.587 26.84 440.627 30.68C443.747 34.44 445.307 39.4 445.307 45.56V79.4C445.307 82.04 444.427 84 442.667 85.28C440.987 86.48 438.427 87.08 434.987 87.08V46.16C434.987 42.32 434.187 39.32 432.587 37.16C430.987 35 428.467 33.92 425.027 33.92C421.427 33.92 418.347 35.16 415.787 37.64C413.227 40.04 411.947 43.28 411.947 47.36V79.4C411.947 82.04 411.107 84 409.427 85.28C407.747 86.48 405.187 87.08 401.747 87.08V46.16C401.747 42.32 400.947 39.32 399.347 37.16C397.747 35 395.227 33.92 391.787 33.92C388.107 33.92 384.987 35.24 382.427 37.88C379.867 40.52 378.587 43.76 378.587 47.6V79.4C378.587 82.04 377.707 84 375.947 85.28C374.267 86.48 371.707 87.08 368.267 87.08V33.8ZM485.083 87.08C480.203 87.08 475.843 86.16 472.003 84.32C468.163 82.4 465.163 79.8 463.003 76.52C460.843 73.16 459.763 69.4 459.763 65.24V47.48C459.763 43.24 460.883 39.4 463.123 35.96C465.443 32.52 468.523 29.84 472.363 27.92C476.283 25.92 480.523 24.92 485.083 24.92C489.643 24.92 493.803 25.88 497.563 27.8C501.403 29.72 504.403 32.36 506.563 35.72C508.803 39.08 509.923 42.88 509.923 47.12V54.8C509.923 56.08 509.443 57.16 508.483 58.04C507.523 58.92 506.363 59.36 505.003 59.36H469.963V64.76C469.963 68.84 471.243 72.12 473.803 74.6C476.443 77.08 480.203 78.32 485.083 78.32C489.963 78.32 493.683 77.24 496.243 75.08C498.803 72.92 500.083 70 500.083 66.32C502.483 66.16 504.483 66.64 506.083 67.76C507.763 68.8 508.603 70.36 508.603 72.44C508.603 75 507.483 77.4 505.243 79.64C503.083 81.88 500.203 83.68 496.603 85.04C493.003 86.4 489.163 87.08 485.083 87.08ZM500.203 51.2V47.12C500.203 43.12 498.803 39.88 496.003 37.4C493.283 34.84 489.643 33.56 485.083 33.56C480.523 33.56 476.843 34.84 474.043 37.4C471.323 39.88 469.963 43.12 469.963 47.12V51.2H500.203ZM549.815 34.16C545.335 34.16 541.615 35.52 538.655 38.24C535.695 40.88 534.215 44.12 534.215 47.96V79.4C534.215 82.04 533.335 84 531.575 85.28C529.895 86.48 527.295 87.08 523.775 87.08V33.8C523.775 27.88 527.135 24.92 533.855 24.92V32.24C532.575 33.6 531.695 34.8 531.215 35.84L531.695 36.32C536.815 28.72 543.215 24.92 550.895 24.92C553.775 24.92 555.975 25.64 557.495 27.08C559.015 28.44 559.775 30.12 559.775 32.12C559.775 33.56 559.415 34.84 558.695 35.96C556.455 34.76 553.495 34.16 549.815 34.16ZM591.017 87.08C586.137 87.08 581.777 86.2 577.937 84.44C574.097 82.68 571.097 80.2 568.937 77C566.857 73.8 565.817 70.16 565.817 66.08V46.64C565.817 42.4 566.857 38.64 568.937 35.36C571.097 32.08 574.057 29.52 577.817 27.68C581.577 25.84 585.897 24.92 590.777 24.92C595.337 24.92 599.377 25.6 602.897 26.96C606.497 28.24 609.297 30.08 611.297 32.48C613.297 34.88 614.297 37.6 614.297 40.64C614.297 42.64 613.497 44.28 611.897 45.56C610.377 46.76 608.377 47.28 605.897 47.12C605.897 43.28 604.497 40.16 601.697 37.76C598.977 35.36 595.417 34.16 591.017 34.16C586.617 34.16 583.057 35.36 580.337 37.76C577.617 40.08 576.257 43.12 576.257 46.88V65.6C576.257 69.2 577.657 72.16 580.457 74.48C583.257 76.72 586.857 77.84 591.257 77.84C595.657 77.84 599.217 76.64 601.937 74.24C604.737 71.84 606.137 68.76 606.137 65C608.697 64.84 610.737 65.36 612.257 66.56C613.857 67.68 614.657 69.28 614.657 71.36C614.657 74.4 613.657 77.12 611.657 79.52C609.657 81.92 606.857 83.8 603.257 85.16C599.657 86.44 595.577 87.08 591.017 87.08ZM652.543 87.08C647.663 87.08 643.303 86.16 639.463 84.32C635.623 82.4 632.623 79.8 630.463 76.52C628.303 73.16 627.223 69.4 627.223 65.24V47.48C627.223 43.24 628.343 39.4 630.583 35.96C632.903 32.52 635.983 29.84 639.823 27.92C643.743 25.92 647.983 24.92 652.543 24.92C657.103 24.92 661.263 25.88 665.023 27.8C668.863 29.72 671.863 32.36 674.023 35.72C676.263 39.08 677.383 42.88 677.383 47.12V54.8C677.383 56.08 676.903 57.16 675.943 58.04C674.983 58.92 673.823 59.36 672.463 59.36H637.423V64.76C637.423 68.84 638.703 72.12 641.263 74.6C643.903 77.08 647.663 78.32 652.543 78.32C657.423 78.32 661.143 77.24 663.703 75.08C666.263 72.92 667.543 70 667.543 66.32C669.943 66.16 671.943 66.64 673.543 67.76C675.223 68.8 676.063 70.36 676.063 72.44C676.063 75 674.943 77.4 672.703 79.64C670.543 81.88 667.663 83.68 664.063 85.04C660.463 86.4 656.623 87.08 652.543 87.08ZM667.663 51.2V47.12C667.663 43.12 666.263 39.88 663.463 37.4C660.743 34.84 657.103 33.56 652.543 33.56C647.983 33.56 644.303 34.84 641.503 37.4C638.783 39.88 637.423 43.12 637.423 47.12V51.2H667.663Z" fill="black"/>
<path d="M29.12 187.08C23.36 187.08 18.28 186.32 13.88 184.8C9.48 183.28 6.08 181.16 3.68 178.44C1.28 175.64 0.0800002 172.44 0.0800002 168.84C0.0800002 165.08 1.12 162.12 3.2 159.96C5.28 157.8 8.12 156.72 11.72 156.72C11.4 158.24 11.24 159.84 11.24 161.52C11.24 166.72 12.96 170.72 16.4 173.52C19.84 176.24 24.8 177.6 31.28 177.6C39.04 177.6 45.08 176.16 49.4 173.28C53.72 170.32 55.88 166.24 55.88 161.04C55.88 157.92 54.32 155.4 51.2 153.48C48.16 151.56 42.72 149.72 34.88 147.96C25.52 145.88 18.8 143.28 14.72 140.16C10.72 137.04 8.72 132.92 8.72 127.8C8.72 122.6 10.2 117.96 13.16 113.88C16.2 109.8 20.36 106.64 25.64 104.4C31 102.08 37.08 100.92 43.88 100.92C49.24 100.92 53.96 101.64 58.04 103.08C62.12 104.44 65.28 106.4 67.52 108.96C69.84 111.52 71 114.48 71 117.84C71 121.04 70.08 123.52 68.24 125.28C66.4 127.04 63.76 127.92 60.32 127.92C60.48 121.84 59.12 117.4 56.24 114.6C53.36 111.8 48.68 110.4 42.2 110.4C35.32 110.4 29.92 111.76 26 114.48C22.16 117.2 20.24 121 20.24 125.88C20.24 128.92 21.6 131.36 24.32 133.2C27.04 134.96 31.84 136.64 38.72 138.24C45.76 139.84 51.32 141.56 55.4 143.4C59.48 145.24 62.44 147.44 64.28 150C66.2 152.48 67.16 155.48 67.16 159C67.16 164.52 65.56 169.4 62.36 173.64C59.24 177.88 54.8 181.2 49.04 183.6C43.28 185.92 36.64 187.08 29.12 187.08ZM96.5066 115.92C94.5066 115.92 92.8666 115.36 91.5866 114.24C90.3866 113.04 89.7866 111.52 89.7866 109.68C89.7866 107.36 90.7066 105.32 92.5466 103.56C94.4666 101.8 96.6666 100.92 99.1466 100.92C101.067 100.92 102.627 101.52 103.827 102.72C105.107 103.84 105.747 105.28 105.747 107.04C105.747 109.36 104.787 111.44 102.867 113.28C101.027 115.04 98.9066 115.92 96.5066 115.92ZM88.2266 132.6C89.1866 127.48 93.1066 124.92 99.9866 124.92L90.3866 179.4C89.9066 182.04 88.7066 184 86.7866 185.28C84.8666 186.48 82.1466 187.08 78.6266 187.08L88.2266 132.6ZM132.565 187.08C128.165 187.08 124.685 185.88 122.125 183.48C119.645 181.08 118.405 177.76 118.405 173.52C118.405 172.24 118.525 170.88 118.765 169.44L124.885 134.4H113.725C114.205 131.68 115.125 129.6 116.485 128.16C117.925 126.72 119.725 126 121.885 126H126.445L128.485 114.6C129.445 109.48 133.365 106.92 140.245 106.92L136.765 126H152.725C151.765 131.6 148.765 134.4 143.725 134.4H135.445L129.325 169.08C129.085 170.28 128.965 171.32 128.965 172.2C128.965 174.2 129.485 175.64 130.525 176.52C131.645 177.4 133.405 177.84 135.805 177.84C138.525 177.84 141.325 177.12 144.205 175.68C144.765 176.48 145.045 177.48 145.045 178.68C145.045 181.08 143.845 183.08 141.445 184.68C139.045 186.28 136.085 187.08 132.565 187.08ZM180.5 187.08C173.94 187.08 168.66 185.44 164.66 182.16C160.66 178.8 158.66 174.44 158.66 169.08C158.66 167.8 158.78 166.52 159.02 165.24L162.14 147.48C163.34 140.76 166.62 135.32 171.98 131.16C177.42 127 183.9 124.92 191.42 124.92C195.58 124.92 199.26 125.72 202.46 127.32C205.66 128.92 208.14 131.12 209.9 133.92C211.74 136.72 212.66 139.88 212.66 143.4C212.66 144.68 212.54 145.92 212.3 147.12L210.98 154.8C210.74 156.08 210.06 157.16 208.94 158.04C207.82 158.92 206.62 159.36 205.34 159.36H170.3L169.34 164.76C169.1 165.96 168.98 167.04 168.98 168C168.98 171.44 170.1 174.04 172.34 175.8C174.58 177.48 177.82 178.32 182.06 178.32C186.78 178.32 190.62 177.28 193.58 175.2C196.62 173.04 198.46 170.08 199.1 166.32C201.34 166.16 203.14 166.56 204.5 167.52C205.94 168.4 206.66 169.68 206.66 171.36C206.66 174.08 205.42 176.64 202.94 179.04C200.54 181.44 197.3 183.4 193.22 184.92C189.22 186.36 184.98 187.08 180.5 187.08ZM201.98 151.2L202.7 147.12C202.86 146.4 202.94 145.4 202.94 144.12C202.94 140.76 201.82 138.16 199.58 136.32C197.34 134.48 194.14 133.56 189.98 133.56C185.5 133.56 181.62 134.84 178.34 137.4C175.14 139.88 173.18 143.12 172.46 147.12L171.74 151.2H201.98Z" fill="#FF0000"/>
</svg>
